<?xml version="1.0" standalone="no"?>
<!DOCTYPE svg PUBLIC "-//W3C//DTD SVG 20010904//EN"
 "http://www.w3.org/TR/2001/REC-SVG-20010904/DTD/svg10.dtd">
<svg version="1.0" xmlns="http://www.w3.org/2000/svg"
 width="512.000000pt" height="512.000000pt" viewBox="0 0 512.000000 512.000000"
 preserveAspectRatio="xMidYMid meet">

<g transform="translate(0.000000,512.000000) scale(0.100000,-0.100000)"
fill="#000000" stroke="none">
<path d="M2367 4024 c-653 -101 -1137 -663 -1137 -1319 0 -731 604 -1335 1335
-1335 731 0 1335 604 1335 1335 0 810 -736 1443 -1533 1319z m11 -270 c398
-82 657 -469 576 -861 -19 -91 -54 -182 -92 -240 l-28 -43 51 -53 c68 -70 90
-132 89 -247 -1 -112 -33 -189 -111 -260 -80 -73 -142 -94 -283 -94 -138 0
-201 20 -279 90 -52 47 -115 155 -127 220 -5 27 -12 35 -33 40 -159 33 -232
61 -325 128 -383 274 -423 812 -83 1133 176 167 412 235 645 187z"/>
<path d="M2625 2414 c-27 -19 -80 -46 -117 -61 l-68 -26 0 -46 c1 -69 31 -128
77 -147 53 -23 117 -14 153 21 45 44 62 139 39 230 -16 65 -26 68 -84 29z"/>
<path d="M1473 900 c-44 -14 -73 -54 -73 -102 0 -69 25 -93 125 -117 58 -14
75 -26 75 -52 0 -41 -86 -52 -157 -19 l-43 19 0 -40 c0 -47 17 -57 115 -66 85
-8 148 19 165 72 16 48 5 99 -25 123 -14 11 -56 27 -94 37 -69 17 -86 31 -75
60 11 28 77 32 152 9 20 -6 22 -3 22 29 0 24 -5 37 -17 42 -32 12 -137 15
-170 5z"/>
<path d="M2193 900 c-44 -14 -73 -54 -73 -102 0 -69 25 -93 125 -117 58 -14
75 -26 75 -52 0 -41 -86 -52 -157 -19 l-43 19 0 -40 c0 -47 17 -57 115 -66 85
-8 148 19 165 72 16 48 5 99 -25 123 -14 11 -56 27 -94 37 -69 17 -86 31 -75
60 11 28 77 32 152 9 20 -6 22 -3 22 29 0 24 -5 37 -17 42 -32 12 -137 15
-170 5z"/>
<path d="M1780 715 l0 -185 130 0 130 0 0 35 0 35 -85 0 -85 0 0 45 0 45 75 0
75 0 0 35 0 35 -75 0 -75 0 0 35 0 35 80 0 80 0 0 35 0 35 -125 0 -125 0 0
-185z"/>
<path d="M2440 865 l0 -35 65 0 65 0 0 -150 0 -150 45 0 45 0 0 150 0 150 60
0 60 0 0 35 0 35 -170 0 -170 0 0 -35z"/>
<path d="M2840 715 l0 -185 45 0 45 0 0 185 0 185 -45 0 -45 0 0 -185z"/>
<path d="M3030 715 l0 -185 45 0 44 0 3 122 3 122 65 -122 65 -122 52 0 53 0
0 185 0 185 -45 0 -44 0 -3 -126 -3 -125 -65 125 -65 126 -52 0 -53 0 0 -185z"/>
<path d="M3460 715 l0 -185 130 0 130 0 0 35 0 35 -85 0 -85 0 0 45 0 45 75 0
75 0 0 35 0 35 -75 0 -75 0 0 35 0 35 80 0 80 0 0 35 0 35 -125 0 -125 0 0
-185z"/>
</g>
</svg>
